<svg width="289" height="48" viewBox="0 0 289 48" fill="none" xmlns="http://www.w3.org/2000/svg">
<path d="M63.656 37V32.824H66.968V15.976H63.656V11.8H74.024C77.408 11.8 79.976 12.664 81.728 14.392C83.504 16.096 84.392 18.64 84.392 22.024V26.776C84.392 30.16 83.504 32.716 81.728 34.444C79.976 36.148 77.408 37 74.024 37H63.656ZM71.72 32.68H74.096C76.016 32.68 77.42 32.176 78.308 31.168C79.196 30.16 79.64 28.744 79.64 26.92V21.88C79.64 20.032 79.196 18.616 78.308 17.632C77.42 16.624 76.016 16.12 74.096 16.12H71.72V32.68ZM96.6326 37.504C94.8566 37.504 93.2846 37.132 91.9166 36.388C90.5726 35.62 89.5166 34.552 88.7486 33.184C88.0046 31.792 87.6326 30.16 87.6326 28.288V27.856C87.6326 25.984 88.0046 24.364 88.7486 22.996C89.4926 21.604 90.5366 20.536 91.8806 19.792C93.2246 19.024 94.7846 18.64 96.5606 18.64C98.3126 18.64 99.8366 19.036 101.133 19.828C102.429 20.596 103.437 21.676 104.157 23.068C104.877 24.436 105.237 26.032 105.237 27.856V29.404H92.2406C92.2886 30.628 92.7446 31.624 93.6086 32.392C94.4726 33.16 95.5286 33.544 96.7766 33.544C98.0486 33.544 98.9846 33.268 99.5846 32.716C100.185 32.164 100.641 31.552 100.953 30.88L104.661 32.824C104.325 33.448 103.833 34.132 103.185 34.876C102.561 35.596 101.721 36.22 100.665 36.748C99.6086 37.252 98.2646 37.504 96.6326 37.504ZM92.2766 26.02H100.629C100.533 24.988 100.113 24.16 99.3686 23.536C98.6486 22.912 97.7006 22.6 96.5246 22.6C95.3006 22.6 94.3286 22.912 93.6086 23.536C92.8886 24.16 92.4446 24.988 92.2766 26.02ZM116.69 37.504C114.362 37.504 112.454 37 110.966 35.992C109.478 34.984 108.578 33.544 108.266 31.672L112.442 30.592C112.61 31.432 112.886 32.092 113.27 32.572C113.678 33.052 114.17 33.4 114.746 33.616C115.346 33.808 115.994 33.904 116.69 33.904C117.746 33.904 118.526 33.724 119.03 33.364C119.534 32.98 119.786 32.512 119.786 31.96C119.786 31.408 119.546 30.988 119.066 30.7C118.586 30.388 117.818 30.136 116.762 29.944L115.754 29.764C114.506 29.524 113.366 29.2 112.334 28.792C111.302 28.36 110.474 27.772 109.85 27.028C109.226 26.284 108.914 25.324 108.914 24.148C108.914 22.372 109.562 21.016 110.858 20.08C112.154 19.12 113.858 18.64 115.97 18.64C117.962 18.64 119.618 19.084 120.938 19.972C122.258 20.86 123.122 22.024 123.53 23.464L119.318 24.76C119.126 23.848 118.73 23.2 118.13 22.816C117.554 22.432 116.834 22.24 115.97 22.24C115.106 22.24 114.446 22.396 113.99 22.708C113.534 22.996 113.306 23.404 113.306 23.932C113.306 24.508 113.546 24.94 114.026 25.228C114.506 25.492 115.154 25.696 115.97 25.84L116.978 26.02C118.322 26.26 119.534 26.584 120.614 26.992C121.718 27.376 122.582 27.94 123.206 28.684C123.854 29.404 124.178 30.388 124.178 31.636C124.178 33.508 123.494 34.96 122.126 35.992C120.782 37 118.97 37.504 116.69 37.504ZM128.153 37V19.144H132.689V37H128.153ZM130.421 17.056C129.605 17.056 128.909 16.792 128.333 16.264C127.781 15.736 127.505 15.04 127.505 14.176C127.505 13.312 127.781 12.616 128.333 12.088C128.909 11.56 129.605 11.296 130.421 11.296C131.261 11.296 131.957 11.56 132.509 12.088C133.061 12.616 133.337 13.312 133.337 14.176C133.337 15.04 133.061 15.736 132.509 16.264C131.957 16.792 131.261 17.056 130.421 17.056ZM136.851 28.144V27.568C136.851 25.696 137.223 24.1 137.967 22.78C138.711 21.436 139.695 20.416 140.919 19.72C142.167 19 143.523 18.64 144.987 18.64C146.619 18.64 147.855 18.928 148.695 19.504C149.535 20.08 150.147 20.68 150.531 21.304H151.179V19.144H155.643V40.168C155.643 41.392 155.283 42.364 154.563 43.084C153.843 43.828 152.883 44.2 151.683 44.2H139.731V40.24H150.099C150.771 40.24 151.107 39.88 151.107 39.16V34.516H150.459C150.219 34.9 149.883 35.296 149.451 35.704C149.019 36.088 148.443 36.412 147.723 36.676C147.003 36.94 146.091 37.072 144.987 37.072C143.523 37.072 142.167 36.724 140.919 36.028C139.695 35.308 138.711 34.288 137.967 32.968C137.223 31.624 136.851 30.016 136.851 28.144ZM146.283 33.112C147.675 33.112 148.839 32.668 149.775 31.78C150.711 30.892 151.179 29.644 151.179 28.036V27.676C151.179 26.044 150.711 24.796 149.775 23.932C148.863 23.044 147.699 22.6 146.283 22.6C144.891 22.6 143.727 23.044 142.791 23.932C141.855 24.796 141.387 26.044 141.387 27.676V28.036C141.387 29.644 141.855 30.892 142.791 31.78C143.727 32.668 144.891 33.112 146.283 33.112ZM160.672 37V19.144H165.136V21.484H165.784C166.072 20.86 166.612 20.272 167.404 19.72C168.196 19.144 169.396 18.856 171.004 18.856C172.396 18.856 173.608 19.18 174.64 19.828C175.696 20.452 176.512 21.328 177.088 22.456C177.664 23.56 177.952 24.856 177.952 26.344V37H173.416V26.704C173.416 25.36 173.08 24.352 172.408 23.68C171.76 23.008 170.824 22.672 169.6 22.672C168.208 22.672 167.128 23.14 166.36 24.076C165.592 24.988 165.208 26.272 165.208 27.928V37H160.672ZM200.565 37.504C198.837 37.504 197.265 37.12 195.849 36.352C194.457 35.56 193.341 34.42 192.501 32.932C191.685 31.42 191.277 29.584 191.277 27.424V21.376C191.277 18.136 192.189 15.652 194.013 13.924C195.837 12.172 198.309 11.296 201.429 11.296C204.525 11.296 206.913 12.124 208.593 13.78C210.297 15.412 211.149 17.632 211.149 20.44V20.584H206.469V20.296C206.469 19.408 206.277 18.604 205.893 17.884C205.533 17.164 204.981 16.6 204.237 16.192C203.493 15.76 202.557 15.544 201.429 15.544C199.749 15.544 198.429 16.06 197.469 17.092C196.509 18.124 196.029 19.528 196.029 21.304V27.496C196.029 29.248 196.509 30.664 197.469 31.744C198.429 32.8 199.773 33.328 201.501 33.328C203.229 33.328 204.489 32.872 205.281 31.96C206.073 31.048 206.469 29.896 206.469 28.504V28.144H200.493V24.112H211.149V37H206.757V34.588H206.109C205.941 34.996 205.665 35.428 205.281 35.884C204.921 36.34 204.369 36.724 203.625 37.036C202.881 37.348 201.861 37.504 200.565 37.504ZM222.637 37.288C221.245 37.288 220.021 36.976 218.965 36.352C217.933 35.704 217.129 34.816 216.553 33.688C215.977 32.56 215.688 31.264 215.688 29.8V19.144H220.225V29.44C220.225 30.784 220.549 31.792 221.197 32.464C221.869 33.136 222.817 33.472 224.041 33.472C225.433 33.472 226.513 33.016 227.281 32.104C228.049 31.168 228.433 29.872 228.433 28.216V19.144H232.969V37H228.505V34.66H227.857C227.569 35.26 227.029 35.848 226.237 36.424C225.445 37 224.245 37.288 222.637 37.288ZM238.016 37V19.144H242.552V37H238.016ZM240.284 17.056C239.468 17.056 238.772 16.792 238.196 16.264C237.644 15.736 237.368 15.04 237.368 14.176C237.368 13.312 237.644 12.616 238.196 12.088C238.772 11.56 239.468 11.296 240.284 11.296C241.124 11.296 241.82 11.56 242.372 12.088C242.924 12.616 243.2 13.312 243.2 14.176C243.2 15.04 242.924 15.736 242.372 16.264C241.82 16.792 241.124 17.056 240.284 17.056ZM254.779 37.504C253.363 37.504 252.031 37.156 250.783 36.46C249.559 35.74 248.575 34.696 247.831 33.328C247.087 31.96 246.715 30.304 246.715 28.36V27.784C246.715 25.84 247.087 24.184 247.831 22.816C248.575 21.448 249.559 20.416 250.783 19.72C252.007 19 253.339 18.64 254.779 18.64C255.859 18.64 256.759 18.772 257.479 19.036C258.223 19.276 258.823 19.588 259.279 19.972C259.735 20.356 260.083 20.764 260.323 21.196H260.971V11.8H265.507V37H261.043V34.84H260.395C259.987 35.512 259.351 36.124 258.487 36.676C257.647 37.228 256.411 37.504 254.779 37.504ZM256.147 33.544C257.539 33.544 258.703 33.1 259.639 32.212C260.575 31.3 261.043 29.98 261.043 28.252V27.892C261.043 26.164 260.575 24.856 259.639 23.968C258.727 23.056 257.563 22.6 256.147 22.6C254.755 22.6 253.591 23.056 252.655 23.968C251.719 24.856 251.251 26.164 251.251 27.892V28.252C251.251 29.98 251.719 31.3 252.655 32.212C253.591 33.1 254.755 33.544 256.147 33.544ZM278.672 37.504C276.896 37.504 275.324 37.132 273.956 36.388C272.612 35.62 271.556 34.552 270.788 33.184C270.044 31.792 269.672 30.16 269.672 28.288V27.856C269.672 25.984 270.044 24.364 270.788 22.996C271.532 21.604 272.576 20.536 273.92 19.792C275.264 19.024 276.824 18.64 278.6 18.64C280.352 18.64 281.876 19.036 283.172 19.828C284.468 20.596 285.476 21.676 286.196 23.068C286.916 24.436 287.276 26.032 287.276 27.856V29.404H274.28C274.328 30.628 274.784 31.624 275.648 32.392C276.512 33.16 277.568 33.544 278.816 33.544C280.088 33.544 281.024 33.268 281.624 32.716C282.224 32.164 282.68 31.552 282.992 30.88L286.7 32.824C286.364 33.448 285.872 34.132 285.224 34.876C284.6 35.596 283.76 36.22 282.704 36.748C281.648 37.252 280.304 37.504 278.672 37.504ZM274.316 26.02H282.668C282.572 24.988 282.152 24.16 281.408 23.536C280.688 22.912 279.74 22.6 278.564 22.6C277.34 22.6 276.368 22.912 275.648 23.536C274.928 24.16 274.484 24.988 274.316 26.02Z" fill="#242038"/>
<rect width="45" height="45" rx="10.9091" fill="#242038"/>
<path fill-rule="evenodd" clip-rule="evenodd" d="M33.9872 34.4963C35.5501 34.9151 37.2152 34.6959 38.6164 33.8869L35.5662 28.6037L32.5159 23.3206L32.5154 23.3209L26.6242 13.117C26.6162 13.1032 26.6082 13.0895 26.6 13.0759L26.5945 13.0663C25.7855 11.6651 24.453 10.6427 22.8902 10.2239C21.3274 9.80516 19.6623 10.0244 18.2611 10.8334L21.3113 16.1165L24.3616 21.3997L24.3619 21.3995L30.2525 31.6024C30.263 31.6205 30.2736 31.6385 30.2844 31.6564C31.0935 33.0563 32.4253 34.0778 33.9872 34.4963ZM25.0137 34.4989C26.5766 34.9176 28.2417 34.6984 29.6429 33.8894L26.5927 28.6063L23.5424 23.3231L23.5423 23.3232L17.6507 13.1186L17.6356 13.0927L17.6218 13.0687C16.8128 11.6675 15.4803 10.6451 13.9175 10.2263C12.7443 9.91197 11.4916 9.9531 10.3561 10.337C9.11664 10.7246 8.2172 11.8817 8.2172 13.2488V28.27C8.21612 28.3169 8.21558 28.3638 8.21558 28.4108C8.21558 30.0272 8.8583 31.5774 10.0024 32.7203C11.1464 33.8632 12.6981 34.5053 14.316 34.5053V28.4481C14.3171 28.4147 14.3177 28.3812 14.3177 28.3475V21.2914C13.8219 20.4895 13.2327 19.4479 12.6315 18.293C11.2339 15.6081 10.3004 13.3278 10.5465 13.1997C10.5759 13.1843 10.6208 13.2005 10.6795 13.2453L10.6842 13.2534C11.1231 13.6007 12.2963 15.4814 13.5194 17.8309C13.9403 18.6393 14.319 19.4111 14.6362 20.0984L15.3888 21.4021L15.3889 21.4021L21.279 31.604L21.297 31.6348L21.3095 31.6565C22.1185 33.0577 23.4509 34.0801 25.0137 34.4989Z" fill="url(#paint0_linear_5053_1337)"/>
<defs>
<linearGradient id="paint0_linear_5053_1337" x1="8.21558" y1="22.3696" x2="38.6164" y2="22.3696" gradientUnits="userSpaceOnUse">
<stop offset="0.197917" stop-color="#E4FF1A"/>
<stop offset="0.822917" stop-color="#21F4F0"/>
</linearGradient>
</defs>
</svg>
