<svg width="183" height="53" viewBox="0 0 183 53" fill="none" xmlns="http://www.w3.org/2000/svg">
<path d="M75.8203 43.5861V13.9061H86.2083L91.3387 39.7701H92.1019L97.2323 13.9061H107.62V43.5861H102.193V18.0189H101.43L96.3419 43.5861H87.0987L82.0107 18.0189H81.2475V43.5861H75.8203Z" fill="#242038"/>
<path d="M123.386 44.1797C121.294 44.1797 119.415 43.7557 117.747 42.9077C116.079 42.0597 114.765 40.8301 113.804 39.2189C112.843 37.6077 112.362 35.6714 112.362 33.4101V32.7317C112.362 30.4704 112.843 28.5341 113.804 26.9229C114.765 25.3117 116.079 24.0821 117.747 23.2341C119.415 22.3861 121.294 21.9621 123.386 21.9621C125.478 21.9621 127.358 22.3861 129.025 23.2341C130.693 24.0821 132.007 25.3117 132.969 26.9229C133.93 28.5341 134.41 30.4704 134.41 32.7317V33.4101C134.41 35.6714 133.93 37.6077 132.969 39.2189C132.007 40.8301 130.693 42.0597 129.025 42.9077C127.358 43.7557 125.478 44.1797 123.386 44.1797ZM123.386 39.4309C125.026 39.4309 126.382 38.908 127.457 37.8621C128.531 36.788 129.068 35.2616 129.068 33.2829V32.8589C129.068 30.8802 128.531 29.368 127.457 28.3221C126.411 27.248 125.054 26.7109 123.386 26.7109C121.747 26.7109 120.39 27.248 119.316 28.3221C118.242 29.368 117.705 30.8802 117.705 32.8589V33.2829C117.705 35.2616 118.242 36.788 119.316 37.8621C120.39 38.908 121.747 39.4309 123.386 39.4309Z" fill="#242038"/>
<path d="M139.341 43.5861V13.9061H144.684V43.5861H139.341Z" fill="#242038"/>
<path d="M150.604 43.5861V22.5557H155.946V43.5861H150.604ZM153.275 20.0965C152.314 20.0965 151.494 19.7856 150.816 19.1637C150.166 18.5418 149.841 17.7221 149.841 16.7045C149.841 15.6869 150.166 14.8672 150.816 14.2453C151.494 13.6234 152.314 13.3125 153.275 13.3125C154.265 13.3125 155.084 13.6234 155.734 14.2453C156.384 14.8672 156.71 15.6869 156.71 16.7045C156.71 17.7221 156.384 18.5418 155.734 19.1637C155.084 19.7856 154.265 20.0965 153.275 20.0965Z" fill="#242038"/>
<path d="M161.866 43.5861V22.5557H167.124V25.3117H167.887C168.226 24.5768 168.862 23.8842 169.795 23.2341C170.728 22.5557 172.141 22.2165 174.035 22.2165C175.675 22.2165 177.102 22.5981 178.318 23.3613C179.561 24.0962 180.522 25.128 181.201 26.4565C181.879 27.7568 182.218 29.2832 182.218 31.0357V43.5861H176.876V31.4597C176.876 29.8768 176.48 28.6896 175.689 27.8981C174.926 27.1066 173.823 26.7109 172.382 26.7109C170.742 26.7109 169.47 27.2621 168.566 28.3645C167.661 29.4386 167.209 30.9509 167.209 32.9013V43.5861H161.866Z" fill="#242038"/>
<rect width="53" height="53" rx="12.7597" fill="#242038"/>
<path fill-rule="evenodd" clip-rule="evenodd" d="M26.9596 12.0339C28.7718 12.5195 30.3209 13.6942 31.2777 15.3053C31.3052 15.3486 31.3319 15.3926 31.3578 15.4375L41.8535 33.6166C41.8627 33.6325 41.8717 33.6484 41.8806 33.6644L41.8892 33.6792L45.4817 39.9016C43.8314 40.8544 41.8702 41.1126 40.0296 40.6194C38.1889 40.1262 36.6196 38.922 35.6668 37.2717C35.6583 37.257 35.6499 37.2423 35.6415 37.2276C35.6372 37.22 35.6329 37.2125 35.6287 37.2049L28.6948 25.1951L28.6925 25.1965L25.1 18.9741L21.5075 12.7517C23.1577 11.7989 25.1189 11.5407 26.9596 12.0339ZM29.4629 40.627C31.3036 41.1202 33.2648 40.862 34.915 39.9092L31.3225 33.6869L27.73 27.4645L27.7253 27.4672L20.8797 15.6104C20.8403 15.5362 20.7995 15.4626 20.7574 15.3896C19.8046 13.7393 18.2352 12.5352 16.3946 12.042C14.9482 11.6544 13.3991 11.7256 12.0132 12.2385C11.97 12.2545 11.9308 12.2709 11.8948 12.2879C10.5937 12.828 9.6786 14.1108 9.6786 15.6073V33.3473C9.67802 33.3845 9.67773 33.4217 9.67773 33.459C9.67773 35.3627 10.4347 37.1884 11.7822 38.5345C13.1296 39.8806 14.9572 40.6369 16.8627 40.6369V33.4699C16.8633 33.4434 16.8636 33.4169 16.8636 33.3902V25.0782C16.2797 24.1337 15.5858 22.907 14.8778 21.5469C13.2317 18.3848 12.1322 15.699 12.4221 15.5481C12.6968 15.4051 14.1208 17.5903 15.6702 20.5109C15.7549 20.6706 15.84 20.8324 15.9252 20.9962C16.4312 21.9683 16.8856 22.8952 17.2638 23.7174L25.0624 37.225C25.1016 37.293 25.1428 37.3592 25.1857 37.4236C26.1453 38.9997 27.6763 40.1483 29.4629 40.627Z" fill="url(#paint0_linear_5048_1336)"/>
<defs>
<linearGradient id="paint0_linear_5048_1336" x1="9.67773" y1="26.3401" x2="45.4817" y2="26.3401" gradientUnits="userSpaceOnUse">
<stop offset="0.197917" stop-color="#E4FF1A"/>
<stop offset="0.822917" stop-color="#21F4F0"/>
</linearGradient>
</defs>
</svg>
